<?xml version="1.0" encoding="UTF-8" ?>
<!DOCTYPE svg PUBLIC "-//W3C//DTD SVG 1.1//EN" "http://www.w3.org/Graphics/SVG/1.1/DTD/svg11.dtd">
<svg width="300pt" height="258pt" viewBox="0 0 300 258" version="1.1" xmlns="http://www.w3.org/2000/svg">
<g id="#ffffffff">
</g>
<g id="#231f20ff">
<path fill="#231f20" stroke="#231f20" stroke-width="0.09375" opacity="1.00" d=" M 24.25 16.09 C 27.36 9.24 33.44 4.33 39.95 0.86 C 38.81 3.77 37.04 6.71 37.65 9.96 C 38.20 12.58 39.72 14.84 41.00 17.14 C 35.58 17.80 28.88 19.94 24.25 16.09 Z" />
<path fill="#231f20" stroke="#231f20" stroke-width="0.09375" opacity="1.00" d=" M 49.08 15.08 C 54.08 10.05 60.98 7.38 67.82 5.98 C 65.72 8.08 63.07 10.09 62.53 13.21 C 61.86 16.18 62.80 19.16 63.50 22.03 C 58.69 21.74 53.71 21.03 49.47 18.60 C 47.91 18.06 47.74 15.97 49.08 15.08 Z" />
<path fill="#231f20" stroke="#231f20" stroke-width="0.09375" opacity="1.00" d=" M 5.89 20.97 C 5.33 16.66 7.16 12.58 9.34 8.99 C 9.43 11.30 9.29 13.65 9.78 15.93 C 10.71 18.92 12.89 21.26 14.77 23.68 C 9.23 27.92 4.03 33.67 3.53 40.97 C 2.49 50.06 8.50 58.08 7.94 67.12 C 5.82 60.58 2.79 54.42 0.00 48.16 L 0.00 40.47 C 1.18 36.18 3.30 32.26 5.65 28.51 C 7.23 26.27 5.82 23.46 5.89 20.97 Z" />
<path fill="#231f20" stroke="#231f20" stroke-width="0.09375" opacity="1.00" d=" M 16.57 17.22 C 22.59 20.29 29.53 19.22 36.02 19.82 C 47.91 20.56 60.61 23.99 68.56 33.46 C 77.74 44.77 79.01 60.11 86.76 72.22 C 88.08 74.22 89.67 76.02 91.02 78.01 C 87.07 76.63 84.48 73.07 82.39 69.64 C 76.81 59.51 74.63 47.68 67.78 38.22 C 61.30 29.66 50.44 25.78 40.07 24.85 C 33.85 24.42 27.67 23.58 21.46 23.11 C 19.21 31.28 10.68 36.32 9.63 44.99 C 9.36 49.09 12.86 51.76 14.55 55.09 C 14.44 56.96 11.34 56.92 10.67 55.39 C 8.05 52.27 6.78 47.98 7.78 43.97 C 9.78 36.57 16.18 31.27 18.13 23.85 C 18.84 21.51 17.64 19.23 16.57 17.22 Z" />
<path fill="#231f20" stroke="#231f20" stroke-width="0.09375" opacity="1.00" d=" M 68.16 23.35 C 74.95 21.35 82.26 22.01 88.94 24.10 C 86.34 24.90 83.49 25.51 81.50 27.50 C 79.42 29.46 79.01 32.43 78.32 35.06 C 74.83 33.80 72.24 30.93 69.73 28.30 C 68.38 26.98 67.86 25.19 68.16 23.35 Z" />
<path fill="#231f20" stroke="#231f20" stroke-width="0.09375" opacity="1.00" d=" M 81.57 36.69 C 88.73 36.24 95.01 40.04 100.92 43.55 C 97.85 43.44 94.34 42.64 91.71 44.70 C 89.90 46.20 88.60 48.19 87.11 49.98 C 84.59 45.92 81.10 41.77 81.57 36.69 Z" />
<path fill="#231f20" stroke="#231f20" stroke-width="0.09375" opacity="1.00" d=" M 241.02 45.15 C 247.87 42.82 255.67 45.25 260.44 50.56 C 268.78 59.32 271.19 71.63 277.15 81.84 C 279.25 85.30 282.54 89.06 287.00 88.70 C 292.20 88.33 296.52 84.74 300.00 81.13 L 300.00 82.94 C 296.77 86.64 294.08 91.30 289.26 93.13 C 285.24 94.62 280.78 93.07 277.70 90.32 C 270.25 83.88 267.18 74.18 261.68 66.29 C 258.19 61.50 253.67 56.65 247.55 55.58 C 242.08 54.62 236.75 57.21 232.65 60.64 C 225.33 66.85 219.97 75.01 215.38 83.35 C 213.07 87.41 211.65 92.01 208.59 95.61 C 210.79 84.18 215.12 73.11 221.13 63.14 C 225.93 55.53 232.27 48.16 241.02 45.15 Z" />
<path fill="#231f20" stroke="#231f20" stroke-width="0.09375" opacity="1.00" d=" M 28.07 49.80 C 31.71 50.70 34.32 53.70 36.01 56.90 C 39.81 64.32 41.40 72.83 46.31 79.69 C 48.29 82.57 51.47 84.20 54.42 85.87 C 46.25 89.16 38.56 95.01 35.55 103.58 C 33.05 108.88 33.25 114.79 32.98 120.49 C 30.56 117.58 30.13 113.66 29.77 110.04 C 29.56 94.26 37.57 79.28 35.39 63.39 C 34.72 58.08 31.49 53.71 28.07 49.80 Z" />
<path fill="#231f20" stroke="#231f20" stroke-width="0.09375" opacity="1.00" d=" M 91.05 52.85 C 97.10 52.28 102.31 56.16 106.93 59.55 C 104.67 59.46 102.28 58.85 100.11 59.76 C 98.12 60.80 96.67 62.55 95.10 64.10 C 93.06 60.65 90.89 57.02 91.05 52.85 Z" />
<path fill="#231f20" stroke="#231f20" stroke-width="0.09375" opacity="1.00" d=" M 28.41 55.78 C 30.82 59.94 31.21 64.97 30.29 69.62 C 28.82 75.69 24.47 80.46 22.20 86.19 C 20.77 89.41 22.34 92.88 22.25 96.23 C 18.84 95.55 17.12 92.00 13.83 91.05 C 11.39 89.84 7.12 89.47 7.15 85.95 C 7.07 81.46 8.91 77.18 8.86 72.68 C 9.06 72.50 9.45 72.14 9.64 71.96 C 9.93 75.86 9.64 79.80 10.52 83.63 C 13.92 84.39 16.90 82.37 19.60 80.59 C 24.00 77.70 27.32 73.13 28.42 67.95 C 29.11 63.92 28.43 59.83 28.41 55.78 Z" />
<path fill="#231f20" stroke="#231f20" stroke-width="0.09375" opacity="1.00" d=" M 96.94 67.13 C 101.87 67.19 106.01 70.05 110.03 72.55 C 106.01 72.03 102.59 73.98 100.09 76.98 C 98.54 73.94 96.16 70.73 96.94 67.13 Z" />
<path fill="#231f20" stroke="#231f20" stroke-width="0.09375" opacity="1.00" d=" M 133.01 100.46 C 150.06 101.09 166.17 94.45 182.97 92.99 C 191.67 92.30 200.66 94.95 207.32 100.67 C 214.65 106.94 219.70 115.43 223.91 124.00 C 218.12 116.58 212.48 108.78 204.63 103.36 C 199.48 99.78 193.38 97.09 186.99 97.41 C 179.72 97.56 172.98 102.78 170.74 109.66 C 168.89 114.22 169.48 119.22 169.85 124.00 C 166.59 117.94 160.70 113.87 154.49 111.25 C 145.10 107.30 135.03 105.39 125.21 102.83 C 119.52 101.11 112.62 100.12 108.81 95.09 C 116.63 97.79 124.63 100.46 133.01 100.46 Z" />
<path fill="#231f20" stroke="#231f20" stroke-width="0.09375" opacity="1.00" d=" M 183.67 102.81 C 188.91 101.32 194.63 102.20 199.47 104.60 C 207.92 108.65 214.58 115.97 218.71 124.31 C 224.38 137.40 225.86 152.54 235.09 163.93 C 238.36 168.26 243.24 170.82 248.12 172.94 C 241.17 184.53 236.24 198.60 240.01 212.11 C 241.91 219.90 247.06 226.42 253.46 231.07 C 247.71 233.94 240.83 236.50 234.44 234.36 C 230.93 233.23 231.10 229.00 231.20 226.02 C 231.93 210.84 237.13 195.92 235.21 180.63 C 234.73 176.27 230.74 173.78 227.39 171.61 C 214.10 163.30 199.31 157.06 187.70 146.29 C 179.98 138.92 173.65 128.98 173.87 117.96 C 174.11 111.68 177.50 105.05 183.67 102.81 M 187.39 105.64 C 184.10 106.49 181.82 109.41 180.73 112.49 C 179.34 118.29 180.67 124.42 183.38 129.63 C 187.23 137.04 193.33 143.46 201.00 146.91 C 205.11 148.61 210.12 149.39 214.15 147.05 C 217.62 145.05 219.05 140.84 219.27 137.04 C 219.11 126.92 213.28 117.65 205.69 111.31 C 200.70 107.10 194.00 104.04 187.39 105.64 Z" />
<path fill="#231f20" stroke="#231f20" stroke-width="0.09375" opacity="1.00" d=" M 75.87 110.13 C 78.19 126.25 84.58 142.93 97.88 153.12 C 101.07 155.85 105.19 157.17 108.39 159.87 C 105.34 160.02 102.29 159.54 99.48 158.34 C 89.56 154.40 79.73 149.74 69.03 148.37 C 61.93 147.17 54.66 147.47 47.59 148.79 C 40.07 150.52 31.90 150.82 25.32 155.33 C 20.98 158.10 17.41 162.18 15.63 167.06 C 15.99 169.62 17.77 171.75 18.99 173.98 C 21.76 178.19 24.80 183.08 30.03 184.37 C 34.45 185.30 36.95 180.74 40.56 179.27 C 40.19 183.44 37.39 186.78 34.94 189.97 C 32.12 193.20 29.23 196.76 25.02 198.15 C 24.43 191.29 21.90 184.72 17.81 179.18 C 15.15 175.01 11.30 171.56 9.29 167.00 C 10.30 164.31 12.58 162.35 13.98 159.87 C 15.95 156.92 16.76 153.43 17.87 150.11 C 20.18 148.60 23.26 148.75 25.87 147.93 C 40.37 144.30 55.12 138.68 65.72 127.73 C 70.51 122.81 73.79 116.64 75.87 110.13 Z" />
<path fill="#231f20" stroke="#231f20" stroke-width="0.09375" opacity="1.00" d=" M 83.13 122.00 C 90.13 132.68 98.43 143.05 109.94 149.10 C 123.70 156.78 140.39 157.39 155.45 153.73 C 160.75 152.61 165.74 150.40 171.00 149.13 C 158.08 156.81 143.15 162.00 127.96 161.06 C 115.51 160.16 103.75 153.75 95.91 144.09 C 90.34 137.59 86.25 129.93 83.13 122.00 Z" />
<path fill="#231f20" stroke="#231f20" stroke-width="0.09375" opacity="1.00" d=" M 53.11 151.37 C 59.65 151.40 66.14 152.34 72.67 152.52 C 74.51 158.03 76.59 163.47 79.37 168.59 C 80.78 170.46 78.93 172.38 78.17 174.10 C 72.08 185.15 70.84 198.37 73.15 210.64 C 75.16 219.30 78.74 228.81 87.15 233.10 C 80.94 235.81 73.79 237.74 67.06 236.02 C 67.33 229.97 68.50 223.99 68.52 217.93 C 69.39 194.90 64.23 171.60 53.11 151.37 Z" />
<path fill="#231f20" stroke="#231f20" stroke-width="0.09375" opacity="1.00" d=" M 140.93 165.33 C 151.05 166.58 161.42 164.27 169.89 158.54 C 174.14 169.23 182.54 177.74 192.00 184.01 C 194.80 185.92 197.96 187.27 200.67 189.33 C 200.69 189.71 200.73 190.46 200.75 190.84 C 191.24 193.40 181.14 195.11 172.89 200.91 C 170.77 202.46 168.70 204.29 167.86 206.87 C 170.57 208.58 173.45 210.00 176.14 211.74 C 170.55 211.99 164.91 211.30 159.56 209.64 C 157.91 209.18 156.42 208.28 155.23 207.06 C 157.61 203.50 160.96 200.68 164.85 198.92 C 172.87 194.67 181.91 193.12 190.30 189.84 C 189.48 188.92 188.58 188.04 187.43 187.55 C 178.09 183.09 168.44 179.31 159.09 174.85 C 152.91 171.93 146.50 169.34 140.93 165.33 Z" />
<path fill="#231f20" stroke="#231f20" stroke-width="0.09375" opacity="1.00" d=" M 39.88 194.94 C 40.95 193.84 41.53 192.12 43.05 191.57 C 45.46 192.14 47.58 193.47 49.50 194.99 C 47.60 204.40 43.96 215.09 34.87 219.76 C 32.24 213.45 31.60 206.53 31.33 199.76 C 34.36 198.57 37.86 197.71 39.88 194.94 Z" />
<path fill="#231f20" stroke="#231f20" stroke-width="0.09375" opacity="1.00" d=" M 142.69 223.71 C 145.93 219.18 149.66 215.00 153.85 211.34 C 157.58 214.58 162.48 215.26 167.23 214.52 C 168.45 216.84 168.88 219.43 169.17 222.00 C 160.86 227.01 150.70 230.41 141.04 227.65 C 141.41 226.27 141.80 224.86 142.69 223.71 Z" />
<path fill="#231f20" stroke="#231f20" stroke-width="0.09375" opacity="1.00" d=" M 230.30 239.08 C 234.41 241.66 239.05 243.31 243.96 242.18 C 245.29 244.50 245.82 247.12 245.90 249.77 C 237.61 254.61 227.62 257.98 218.04 255.40 C 218.12 253.20 219.40 251.36 220.69 249.66 C 223.66 245.93 226.83 242.36 230.30 239.08 Z" />
<path fill="#231f20" stroke="#231f20" stroke-width="0.09375" opacity="1.00" d=" M 55.98 256.78 C 58.74 250.41 63.83 245.42 68.89 240.82 C 72.93 243.85 77.93 244.11 82.78 244.09 C 83.47 246.39 84.05 248.73 84.57 251.09 C 79.34 254.45 73.41 256.49 67.41 258.00 L 60.42 258.00 C 58.93 257.63 57.45 257.21 55.98 256.78 Z" />
</g>
</svg>
